@startuml
'https://plantuml.com/class-diagram

abstract class AbstractList
abstract AbstractCollection
interface List
interface Collection

class ArrayList {
String str
Object[] elementData
size()
}
enum TimeUnit {
DAYS
HOURS
MINUTES
}

List <|-- AbstractList

Collection <|-- AbstractCollection

Collection <|- List

AbstractCollection <|- AbstractList

AbstractList <|-- ArrayList
note on link #red: note that is red



@enduml
